<svg xmlns="http://www.w3.org/2000/svg" viewBox="0 0 100 100">
  <defs>
    <radialGradient id="spaceGradient" cx="50%" cy="50%">
      <stop offset="0%" style="stop-color:#1a0033;stop-opacity:1" />
      <stop offset="50%" style="stop-color:#0f0020;stop-opacity:1" />
      <stop offset="100%" style="stop-color:#000000;stop-opacity:1" />
    </radialGradient>
    <radialGradient id="galaxyCore" cx="50%" cy="50%">
      <stop offset="0%" style="stop-color:#ffffff;stop-opacity:1" />
      <stop offset="30%" style="stop-color:#a78bfa;stop-opacity:0.8" />
      <stop offset="60%" style="stop-color:#6366f1;stop-opacity:0.5" />
      <stop offset="100%" style="stop-color:#4c1d95;stop-opacity:0" />
    </radialGradient>
    <radialGradient id="starGlow" cx="50%" cy="50%">
      <stop offset="0%" style="stop-color:#ffffff;stop-opacity:1" />
      <stop offset="100%" style="stop-color:#ffffff;stop-opacity:0" />
    </radialGradient>
  </defs>

  <!-- Deep space background -->
  <circle cx="50" cy="50" r="50" fill="url(#spaceGradient)"/>

  <!-- Galaxy spiral arms -->
  <ellipse cx="50" cy="50" rx="35" ry="12" fill="none" stroke="url(#galaxyCore)" stroke-width="3" opacity="0.6" transform="rotate(45 50 50)"/>
  <ellipse cx="50" cy="50" rx="35" ry="12" fill="none" stroke="url(#galaxyCore)" stroke-width="3" opacity="0.6" transform="rotate(-45 50 50)"/>
  <ellipse cx="50" cy="50" rx="28" ry="10" fill="none" stroke="#8b5cf6" stroke-width="2" opacity="0.4" transform="rotate(20 50 50)"/>
  <ellipse cx="50" cy="50" rx="28" ry="10" fill="none" stroke="#8b5cf6" stroke-width="2" opacity="0.4" transform="rotate(-70 50 50)"/>

  <!-- Bright galaxy core -->
  <circle cx="50" cy="50" r="8" fill="url(#galaxyCore)"/>
  <circle cx="50" cy="50" r="4" fill="#ffffff" opacity="0.9"/>

  <!-- Scattered stars -->
  <circle cx="25" cy="20" r="1.5" fill="#ffffff" opacity="0.9"/>
  <circle cx="75" cy="25" r="1.2" fill="#c4b5fd" opacity="0.8"/>
  <circle cx="80" cy="70" r="1" fill="#ddd6fe" opacity="0.7"/>
  <circle cx="20" cy="75" r="1.3" fill="#e0e7ff" opacity="0.8"/>
  <circle cx="35" cy="85" r="0.9" fill="#ffffff" opacity="0.6"/>
  <circle cx="70" cy="15" r="0.8" fill="#c4b5fd" opacity="0.7"/>
  <circle cx="15" cy="40" r="1.1" fill="#ddd6fe" opacity="0.75"/>
  <circle cx="85" cy="45" r="1" fill="#e0e7ff" opacity="0.7"/>
  <circle cx="40" cy="15" r="0.7" fill="#ffffff" opacity="0.6"/>
  <circle cx="65" cy="85" r="0.9" fill="#c4b5fd" opacity="0.65"/>

  <!-- Bright stars with glow -->
  <circle cx="30" cy="30" r="2" fill="url(#starGlow)" opacity="0.3"/>
  <circle cx="30" cy="30" r="1.2" fill="#fbbf24" opacity="0.9"/>

  <circle cx="72" cy="68" r="2.5" fill="url(#starGlow)" opacity="0.3"/>
  <circle cx="72" cy="68" r="1.3" fill="#60a5fa" opacity="0.9"/>

  <!-- Nebula dust effect -->
  <ellipse cx="65" cy="35" rx="8" ry="5" fill="#8b5cf6" opacity="0.15" transform="rotate(30 65 35)"/>
  <ellipse cx="35" cy="65" rx="10" ry="6" fill="#6366f1" opacity="0.12" transform="rotate(-20 35 65)"/>
</svg>
